<mxfile host="app.diagrams.net" modified="2024-09-13T19:53:43.002Z" agent="Mozilla/5.0 (Windows NT 10.0; Win64; x64) AppleWebKit/537.36 (KHTML, like Gecko) Chrome/128.0.0.0 Safari/537.36 Edg/128.0.0.0" etag="-XkxEQ8mbsL6To6tVspJ" version="24.6.4" type="device">
  <diagram name="Page-1" id="8kdiqmLlemli3jeYbgCf">
    <mxGraphModel dx="815" dy="433" grid="1" gridSize="10" guides="1" tooltips="1" connect="1" arrows="1" fold="1" page="1" pageScale="1" pageWidth="850" pageHeight="1100" math="0" shadow="0">
      <root>
        <mxCell id="0" />
        <mxCell id="1" parent="0" />
        <mxCell id="Ldq67ZtQCUuMEr9LsmB--25" value="" style="rounded=0;whiteSpace=wrap;html=1;dashed=1;glass=0;" vertex="1" parent="1">
          <mxGeometry x="210" y="210" width="360" height="68.13" as="geometry" />
        </mxCell>
        <mxCell id="Ldq67ZtQCUuMEr9LsmB--24" value="" style="rounded=0;whiteSpace=wrap;html=1;dashed=1;glass=0;" vertex="1" parent="1">
          <mxGeometry x="180" y="290" width="400" height="106.25" as="geometry" />
        </mxCell>
        <mxCell id="Ldq67ZtQCUuMEr9LsmB--15" value="" style="endArrow=classic;html=1;rounded=0;" edge="1" parent="1">
          <mxGeometry width="50" height="50" relative="1" as="geometry">
            <mxPoint x="385" y="387.5" as="sourcePoint" />
            <mxPoint x="425" y="292.5" as="targetPoint" />
          </mxGeometry>
        </mxCell>
        <mxCell id="Ldq67ZtQCUuMEr9LsmB--14" value="" style="endArrow=classic;html=1;rounded=0;" edge="1" parent="1">
          <mxGeometry width="50" height="50" relative="1" as="geometry">
            <mxPoint x="295" y="387.5" as="sourcePoint" />
            <mxPoint x="335" y="292.5" as="targetPoint" />
          </mxGeometry>
        </mxCell>
        <mxCell id="Ldq67ZtQCUuMEr9LsmB--13" value="" style="endArrow=classic;html=1;rounded=0;" edge="1" parent="1">
          <mxGeometry width="50" height="50" relative="1" as="geometry">
            <mxPoint x="205" y="387.5" as="sourcePoint" />
            <mxPoint x="245" y="292.5" as="targetPoint" />
          </mxGeometry>
        </mxCell>
        <mxCell id="Ldq67ZtQCUuMEr9LsmB--2" value="G" style="triangle;whiteSpace=wrap;html=1;strokeWidth=2;" vertex="1" parent="1">
          <mxGeometry x="490" y="220" width="40" height="50" as="geometry" />
        </mxCell>
        <mxCell id="Ldq67ZtQCUuMEr9LsmB--3" value="W" style="triangle;whiteSpace=wrap;html=1;strokeWidth=2;" vertex="1" parent="1">
          <mxGeometry x="490" y="315" width="40" height="50" as="geometry" />
        </mxCell>
        <mxCell id="Ldq67ZtQCUuMEr9LsmB--4" value="H(z)" style="rounded=0;whiteSpace=wrap;html=1;strokeWidth=2;" vertex="1" parent="1">
          <mxGeometry x="200" y="320" width="50" height="40" as="geometry" />
        </mxCell>
        <mxCell id="Ldq67ZtQCUuMEr9LsmB--5" value="H(z)" style="rounded=0;whiteSpace=wrap;html=1;strokeWidth=2;" vertex="1" parent="1">
          <mxGeometry x="280" y="320" width="50" height="40" as="geometry" />
        </mxCell>
        <mxCell id="Ldq67ZtQCUuMEr9LsmB--6" value="H(z)" style="rounded=0;whiteSpace=wrap;html=1;strokeWidth=2;" vertex="1" parent="1">
          <mxGeometry x="380" y="320" width="50" height="40" as="geometry" />
        </mxCell>
        <mxCell id="Ldq67ZtQCUuMEr9LsmB--8" value="" style="endArrow=classic;html=1;rounded=0;entryX=0;entryY=0.5;entryDx=0;entryDy=0;strokeWidth=2;" edge="1" parent="1" target="Ldq67ZtQCUuMEr9LsmB--3">
          <mxGeometry width="50" height="50" relative="1" as="geometry">
            <mxPoint x="430" y="340" as="sourcePoint" />
            <mxPoint x="470" y="380" as="targetPoint" />
            <Array as="points">
              <mxPoint x="470" y="340" />
            </Array>
          </mxGeometry>
        </mxCell>
        <mxCell id="Ldq67ZtQCUuMEr9LsmB--9" value="" style="html=1;verticalLabelPosition=bottom;align=center;labelBackgroundColor=#ffffff;verticalAlign=top;strokeWidth=2;strokeColor=#000000;shadow=0;dashed=0;shape=mxgraph.ios7.icons.add;perimeterSpacing=0;" vertex="1" parent="1">
          <mxGeometry x="590" y="235" width="20" height="20" as="geometry" />
        </mxCell>
        <mxCell id="Ldq67ZtQCUuMEr9LsmB--10" value="" style="endArrow=classic;html=1;rounded=0;exitX=1;exitY=0.5;exitDx=0;exitDy=0;entryX=0.074;entryY=0.512;entryDx=0;entryDy=0;entryPerimeter=0;strokeWidth=2;" edge="1" parent="1" source="Ldq67ZtQCUuMEr9LsmB--2" target="Ldq67ZtQCUuMEr9LsmB--9">
          <mxGeometry width="50" height="50" relative="1" as="geometry">
            <mxPoint x="530" y="240" as="sourcePoint" />
            <mxPoint x="580" y="190" as="targetPoint" />
          </mxGeometry>
        </mxCell>
        <mxCell id="Ldq67ZtQCUuMEr9LsmB--11" value="" style="endArrow=classic;html=1;rounded=0;strokeWidth=2;" edge="1" parent="1" target="Ldq67ZtQCUuMEr9LsmB--9">
          <mxGeometry width="50" height="50" relative="1" as="geometry">
            <mxPoint x="530" y="340" as="sourcePoint" />
            <mxPoint x="600" y="260" as="targetPoint" />
            <Array as="points">
              <mxPoint x="600" y="340" />
            </Array>
          </mxGeometry>
        </mxCell>
        <mxCell id="Ldq67ZtQCUuMEr9LsmB--12" value="" style="endArrow=classic;html=1;rounded=0;entryX=0;entryY=0.5;entryDx=0;entryDy=0;strokeWidth=2;" edge="1" parent="1" target="Ldq67ZtQCUuMEr9LsmB--5">
          <mxGeometry width="50" height="50" relative="1" as="geometry">
            <mxPoint x="250" y="340" as="sourcePoint" />
            <mxPoint x="300" y="290" as="targetPoint" />
          </mxGeometry>
        </mxCell>
        <mxCell id="Ldq67ZtQCUuMEr9LsmB--16" value="" style="ellipse;whiteSpace=wrap;html=1;aspect=fixed;strokeWidth=2;" vertex="1" parent="1">
          <mxGeometry x="150" y="235" width="20" height="20" as="geometry" />
        </mxCell>
        <mxCell id="Ldq67ZtQCUuMEr9LsmB--17" value="" style="endArrow=classic;html=1;rounded=0;exitX=1;exitY=0.5;exitDx=0;exitDy=0;entryX=0;entryY=0.5;entryDx=0;entryDy=0;strokeWidth=2;" edge="1" parent="1" source="Ldq67ZtQCUuMEr9LsmB--16" target="Ldq67ZtQCUuMEr9LsmB--2">
          <mxGeometry width="50" height="50" relative="1" as="geometry">
            <mxPoint x="180" y="240" as="sourcePoint" />
            <mxPoint x="230" y="200" as="targetPoint" />
          </mxGeometry>
        </mxCell>
        <mxCell id="Ldq67ZtQCUuMEr9LsmB--18" value="" style="endArrow=classic;html=1;rounded=0;exitX=0.5;exitY=1;exitDx=0;exitDy=0;entryX=0;entryY=0.5;entryDx=0;entryDy=0;strokeWidth=2;" edge="1" parent="1" source="Ldq67ZtQCUuMEr9LsmB--16" target="Ldq67ZtQCUuMEr9LsmB--4">
          <mxGeometry width="50" height="50" relative="1" as="geometry">
            <mxPoint x="160" y="310" as="sourcePoint" />
            <mxPoint x="210" y="260" as="targetPoint" />
            <Array as="points">
              <mxPoint x="160" y="340" />
            </Array>
          </mxGeometry>
        </mxCell>
        <mxCell id="Ldq67ZtQCUuMEr9LsmB--21" value="" style="endArrow=none;dashed=1;html=1;dashPattern=1 3;strokeWidth=3;rounded=0;" edge="1" parent="1">
          <mxGeometry width="50" height="50" relative="1" as="geometry">
            <mxPoint x="340" y="339.76" as="sourcePoint" />
            <mxPoint x="370" y="339.76" as="targetPoint" />
            <Array as="points">
              <mxPoint x="350" y="340" />
            </Array>
          </mxGeometry>
        </mxCell>
        <mxCell id="Ldq67ZtQCUuMEr9LsmB--22" value="" style="endArrow=classic;html=1;rounded=0;entryX=0;entryY=0.5;entryDx=0;entryDy=0;strokeWidth=2;" edge="1" parent="1" target="Ldq67ZtQCUuMEr9LsmB--16">
          <mxGeometry width="50" height="50" relative="1" as="geometry">
            <mxPoint x="100" y="245" as="sourcePoint" />
            <mxPoint x="140" y="190" as="targetPoint" />
          </mxGeometry>
        </mxCell>
        <mxCell id="Ldq67ZtQCUuMEr9LsmB--23" value="" style="endArrow=classic;html=1;rounded=0;exitX=0.955;exitY=0.488;exitDx=0;exitDy=0;exitPerimeter=0;strokeWidth=2;" edge="1" parent="1" source="Ldq67ZtQCUuMEr9LsmB--9">
          <mxGeometry width="50" height="50" relative="1" as="geometry">
            <mxPoint x="640" y="250" as="sourcePoint" />
            <mxPoint x="660" y="245" as="targetPoint" />
          </mxGeometry>
        </mxCell>
        <mxCell id="Ldq67ZtQCUuMEr9LsmB--26" value="Grana sa izvornim signalom" style="text;html=1;align=center;verticalAlign=middle;whiteSpace=wrap;rounded=0;" vertex="1" parent="1">
          <mxGeometry x="200" y="190" width="170" height="30" as="geometry" />
        </mxCell>
        <mxCell id="Ldq67ZtQCUuMEr9LsmB--27" value="Grana sa faznim kaÅ¡njenjem" style="text;html=1;align=center;verticalAlign=middle;whiteSpace=wrap;rounded=0;" vertex="1" parent="1">
          <mxGeometry x="420" y="390" width="170" height="30" as="geometry" />
        </mxCell>
        <mxCell id="Ldq67ZtQCUuMEr9LsmB--28" value="&lt;b&gt;&lt;font style=&quot;font-size: 13px;&quot;&gt;x(n)&lt;/font&gt;&lt;/b&gt;" style="text;html=1;align=center;verticalAlign=middle;whiteSpace=wrap;rounded=0;" vertex="1" parent="1">
          <mxGeometry x="70" y="220" width="60" height="30" as="geometry" />
        </mxCell>
        <mxCell id="Ldq67ZtQCUuMEr9LsmB--29" value="&lt;span style=&quot;font-size: 13px;&quot;&gt;&lt;b&gt;y(n)&lt;/b&gt;&lt;/span&gt;" style="text;html=1;align=center;verticalAlign=middle;whiteSpace=wrap;rounded=0;" vertex="1" parent="1">
          <mxGeometry x="640" y="220" width="60" height="30" as="geometry" />
        </mxCell>
      </root>
    </mxGraphModel>
  </diagram>
</mxfile>
